HIERARCHY
ROOT Hips
{
  OFFSET 12.3755 98.1547 122.955
  CHANNELS 6 Xposition Yposition Zposition Zrotation Xrotation Yrotation
  JOINT RightUpLeg
  {
    OFFSET -8.9458 -8.66707 0.101652
    CHANNELS 3 Zrotation Xrotation Yrotation
    JOINT RightLeg
    {
      OFFSET 0 -44.4227 1.3727
      CHANNELS 3 Zrotation Xrotation Yrotation
      JOINT RightFoot
      {
        OFFSET 0.253549 -42.0924 -1.46059
        CHANNELS 3 Zrotation Xrotation Yrotation
        JOINT RightToes
        {
          OFFSET 0.04 -4.41509 8.4991
          CHANNELS 3 Zrotation Xrotation Yrotation
          End Site
          {
            OFFSET -0.08 -0.137448 9.77979
          }
        }
      }
    }
  }
  JOINT Spine
  {
    OFFSET 0 11.8905 0
    CHANNELS 3 Zrotation Xrotation Yrotation
    JOINT Spine1
    {
      OFFSET 0 25.6574 0.127663
      CHANNELS 3 Zrotation Xrotation Yrotation
      JOINT HEad
      {
        OFFSET 0 8.73416 0.011341
        CHANNELS 3 Zrotation Xrotation Yrotation
        End Site
        {
          OFFSET -0.29 12.7742 2.51395
        }
      }
      JOINT LeftShoulder1
      {
        OFFSET 8.99 -0.362252 -0.22
        CHANNELS 3 Zrotation Xrotation Yrotation
        JOINT LeftArm
        {
          OFFSET 10.2827 -0.00338 0.322123
          CHANNELS 3 Zrotation Xrotation Yrotation
          JOINT LeftForeArm
          {
            OFFSET 32.7669 0.099144 -1.42434
            CHANNELS 3 Zrotation Xrotation Yrotation
            JOINT LeftHand
            {
              OFFSET 27.5643 0.085362 1.02216
              CHANNELS 3 Zrotation Xrotation Yrotation
              End Site
              {
                OFFSET 16.7443 -0.6 1.50291
              }
            }
          }
        }
      }
      JOINT RightShoulder
      {
        OFFSET -8.99 -0.362252 -0.22
        CHANNELS 3 Zrotation Xrotation Yrotation
        JOINT RightArm
        {
          OFFSET -10.2827 -0.00338 0.322123
          CHANNELS 3 Zrotation Xrotation Yrotation
          JOINT RightForeArm
          {
            OFFSET -32.8971 0.099144 -1.42434
            CHANNELS 3 Zrotation Xrotation Yrotation
            JOINT RightHand
            {
              OFFSET -27.4921 0.085362 1.02216
              CHANNELS 3 Zrotation Xrotation Yrotation
              End Site
              {
                OFFSET -16.6312 -0.6 1.50291
              }
            }
          }
        }
      }
    }
  }
  JOINT LeftUpLeg
  {
    OFFSET 8.9458 -8.66707 0.101652
    CHANNELS 3 Zrotation Xrotation Yrotation
    JOINT LeftLeg
    {
      OFFSET 0 -44.4227 1.3727
      CHANNELS 3 Zrotation Xrotation Yrotation
      JOINT LeftFoot
      {
        OFFSET -0.253549 -42.0924 -1.46059
        CHANNELS 3 Zrotation Xrotation Yrotation
        JOINT LeftToes
        {
          OFFSET -0.04 -4.41509 8.4991
          CHANNELS 3 Zrotation Xrotation Yrotation
          End Site
          {
            OFFSET 0.08 -0.047448 9.77979
          }
        }
      }
    }
  }
}
MOTION
Frames:	7
Frame Time:	0.0166667
12.3755 98.1547 122.955 0.037899 -0.00456167 178.994 8.48163 -27.8281 0.809619 -8.19725 25.3223 -0.857207 3.81952 8.94838 -0.567355 0.0462048 0.000533964 0.662642 0.1757 3.02151 -0.0470995 0.704 8.37318 -0.143971 -1.29186 -2.61912 9.46901 -9.93923e-017 1.59028e-015 -0 -85.7083 -19.9785 -21.4488 -28.6667 15.5719 -17.9501 0.368473 9.90896 -0.00117927 -6.56068 0.165009 2.59396 96.0386 -31.5838 7.24708 17.2032 13.9617 13.544 -0.369625 9.91382 0.00119887 2.24953 7.40573 0.0396439 -3.88107 28.1816 6.1985 -5.70334 -5.86684 -0.0707688 -1.20718e-011 -4.2982e-011 -1.06223e-011 
12.5796 98.2365 121.339 0.484784 0.0693226 178.529 9.43733 -27.0422 0.942182 -8.66512 26.1567 -0.277459 3.76804 7.64561 -0.528966 -0.128284 0.250965 0.583131 0.802669 3.14057 -0.0878283 1.0095 8.49294 -0.16246 -1.20326 -2.66845 9.8764 3.47873e-016 -1.59028e-015 1.98785e-016 -86.2574 -20.821 -20.5718 -28.5088 15.3477 -17.1247 0.368473 9.90896 -0.00117927 -6.85627 0.153055 2.76241 96.5707 -31.7057 7.69272 16.9093 13.9416 13.7612 -0.369625 9.91382 0.00119887 3.11159 6.17399 0.146822 -4.38162 32.0074 6.71965 -5.97981 -3.2572 0.0644816 0.641754 -2.0108 0.114818 
12.7831 98.3026 119.747 0.92764 0.116227 178.152 10.3258 -26.3016 1.05921 -9.09088 26.9964 0.170151 3.73908 6.32077 -0.492979 -0.285022 0.451216 0.507461 1.47219 3.26828 -0.148603 1.2647 8.62195 -0.175755 -1.12642 -2.77947 10.2282 -1.19271e-015 0 -3.97569e-016 -86.7832 -21.6717 -19.7964 -28.3368 15.0977 -16.1944 0.368473 9.90896 -0.00117927 -7.10238 0.142985 2.89993 97.0234 -31.7269 8.08706 16.704 13.9538 14.0952 -0.369625 9.91382 0.00119887 3.91468 4.69875 0.441126 -4.72593 36.0498 6.87793 -6.26344 -0.750671 0.198662 1.09408 -4.07055 0.10205 
12.991 98.3287 118.221 1.35546 0.0880736 178.002 11.0596 -25.681 1.2095 -9.35586 27.8607 0.166627 3.76732 4.92512 -0.463466 -0.411718 0.488165 0.426558 2.27959 3.43274 -0.273829 1.3539 8.77106 -0.171409 -1.0767 -3.11168 10.4467 -3.97569e-016 -1.59028e-015 3.97569e-016 -87.3055 -22.5876 -19.3178 -28.1155 14.7615 -14.8983 0.368473 9.90896 -0.00117927 -7.18883 0.139452 2.95705 97.2403 -31.4809 8.30863 16.7466 14.055 14.7747 -0.369625 9.91382 0.00119887 4.61291 2.53767 1.42793 -4.15823 40.8408 5.61033 -6.70974 1.70605 0.356305 1.09636 -6.44905 -0.209187 
13.1866 98.3254 116.734 1.77743 0.0213952 178.009 11.6544 -25.1379 1.19371 -9.52702 28.7266 0.0877606 3.83107 3.51674 -0.435577 -0.478442 0.50042 0.38295 3.10961 3.58425 -0.410512 1.42251 8.94478 -0.165901 -1.05555 -3.43426 10.5428 -4.96962e-016 -3.18055e-015 1.19271e-015 -87.8043 -23.4173 -18.9894 -27.9028 14.4238 -13.5965 0.368473 9.90896 -0.00117927 -7.24877 0.136026 2.95835 97.3512 -31.0749 8.50658 16.905 14.1978 15.5833 -0.369625 9.91382 0.00119887 5.25074 0.044872 2.3361 -3.08705 45.6934 3.83864 -6.82622 3.54036 0.464506 0.542022 -8.53179 -0.82719 
13.353 98.2807 115.278 2.22886 -0.0583989 178.197 12.1105 -24.6779 0.757107 -9.66658 29.613 0.244088 3.95241 2.11355 -0.405822 -0.421898 0.594541 0.436836 3.89946 3.68092 -0.520773 1.62259 9.17205 -0.176276 -1.08483 -3.47929 10.4708 -6.95746e-016 0 -0 -88.2631 -23.9498 -18.7426 -27.7868 14.1779 -12.6067 0.368473 9.90896 -0.00117927 -7.41891 0.125057 2.88283 97.436 -30.5658 8.74489 17.1233 14.3763 16.459 -0.369625 9.91382 0.00119887 5.65927 -2.59466 2.46406 -2.10142 50.1831 2.20752 -5.81714 4.09209 0.424631 -0.873764 -9.90729 -1.9441 
13.4962 98.2388 113.834 2.6245 -0.166151 178.416 12.4155 -24.2261 0.126636 -9.75334 30.41 0.550733 4.03585 0.787282 -0.374147 -0.328907 0.753566 0.526147 4.5838 3.72755 -0.603474 1.81911 9.39042 -0.188481 -1.12735 -3.51892 10.3198 -1.78906e-015 -3.18055e-015 -0 -88.6829 -24.417 -18.5244 -27.7016 13.9775 -11.7796 0.368473 9.90896 -0.00117927 -7.57821 0.114862 2.81783 97.4847 -29.9338 9.15613 17.3414 14.5303 17.1663 -0.369625 9.91382 0.00119887 5.9549 -5.32321 2.12705 -1.47592 54.0811 1.36928 -4.71129 3.67772 0.333112 -2.71694 -10.2281 -3.17082 
